<svg xmlns="http://www.w3.org/2000/svg" version="1.1" xmlns:xlink="http://www.w3.org/1999/xlink" xmlns:svgjs="http://svgjs.com/svgjs" width="1440" height="560" preserveAspectRatio="none" viewBox="0 0 1440 560"><g mask="url(&quot;#SvgjsMask1000&quot;)" fill="none"><rect width="1440" height="560" x="0" y="0" fill="#0e2a47"></rect><path d="M118.69043190176296 221.41158556841532L56.31917711727891 217.05016256441994 80.96267000352786 312.7877562431437z" fill="rgba(28, 83, 142, 0.4)" class="triangle-float2"></path><path d="M188.01,322.812C229.011,321.751,258.847,288.134,278.461,252.113C297.053,217.969,303.965,177.813,285.634,143.528C266.279,107.327,229.018,81.089,188.01,82.935C149.407,84.673,123.605,118.088,104.511,151.683C85.719,184.748,72.396,222.832,89.074,257.012C107.689,295.163,145.574,323.91,188.01,322.812" fill="rgba(28, 83, 142, 0.4)" class="triangle-float2"></path><path d="M179.03,455.058C211.957,453.107,239.3,431.483,254.868,402.403C269.528,375.02,268.547,342.787,253.76,315.473C238.162,286.662,211.784,263.055,179.03,262.322C145.165,261.564,116.137,283.213,98.271,311.991C79.203,342.705,68.079,380.934,85.85,412.416C103.847,444.298,142.483,457.223,179.03,455.058" fill="rgba(28, 83, 142, 0.4)" class="triangle-float2"></path><path d="M1289.059,56.002C1306.306,55.572,1319.896,42.901,1328.268,27.817C1336.358,13.242,1338.337,-4.037,1330.57,-18.787C1322.249,-34.589,1306.916,-46.896,1289.059,-46.639C1271.553,-46.387,1258.11,-32.903,1249.569,-17.62C1241.274,-2.777,1238.27,14.878,1246.308,29.862C1254.77,45.638,1271.163,56.449,1289.059,56.002" fill="rgba(28, 83, 142, 0.4)" class="triangle-float3"></path><path d="M653.6718902782601 553.8335439459356L747.4043891611516 456.9556361985463 633.5829459793719 426.4572724166436z" fill="rgba(28, 83, 142, 0.4)" class="triangle-float1"></path><path d="M872.336,346.605C923.812,344.292,968.706,312.626,992.583,266.964C1014.795,224.488,1005.952,175.682,983.996,133.073C959.525,85.583,925.644,37.123,872.336,33.608C814.206,29.775,760.867,65.915,731.886,116.451C703.053,166.729,701.605,229.207,731.796,278.681C760.846,326.284,816.625,349.108,872.336,346.605" fill="rgba(28, 83, 142, 0.4)" class="triangle-float3"></path></g><defs><mask id="SvgjsMask1000"><rect width="1440" height="560" fill="#ffffff"></rect></mask><style>
            @keyframes float1 {
                0%{transform: translate(0, 0)}
                50%{transform: translate(-10px, 0)}
                100%{transform: translate(0, 0)}
            }

            .triangle-float1 {
                animation: float1 5s infinite;
            }

            @keyframes float2 {
                0%{transform: translate(0, 0)}
                50%{transform: translate(-5px, -5px)}
                100%{transform: translate(0, 0)}
            }

            .triangle-float2 {
                animation: float2 4s infinite;
            }

            @keyframes float3 {
                0%{transform: translate(0, 0)}
                50%{transform: translate(0, -10px)}
                100%{transform: translate(0, 0)}
            }

            .triangle-float3 {
                animation: float3 6s infinite;
            }
        </style></defs></svg>