<svg xmlns="http://www.w3.org/2000/svg" version="1.1" xmlns:xlink="http://www.w3.org/1999/xlink" xmlns:svgjs="http://svgjs.com/svgjs" width="1440" height="560" preserveAspectRatio="none" viewBox="0 0 1440 560"><g mask="url(&quot;#SvgjsMask1000&quot;)" fill="none"><rect width="1440" height="560" x="0" y="0" fill="#0e2a47"></rect><path d="M509.43 239.5a41.58 41.58 0 1 0 66.98-49.3z" fill="#037b0b"></path><path d="M94.62 45.71 a26.27 26.27 0 1 0 52.54 0 a26.27 26.27 0 1 0 -52.54 0z" fill="#d3b714"></path><path d="M715.45 23.37L728.35 23.37L728.35 36.27L715.45 36.27z" fill="#d3b714"></path><path d="M1090.34 381.86L1134.78 381.86L1134.78 389L1090.34 389z" stroke="#037b0b"></path><path d="M1017.4 46.86a49.24 49.24 0 1 0 33.08-92.76z" stroke="#037b0b"></path><path d="M1195.16 435.44L1219.95 435.44L1219.95 467.59L1195.16 467.59z" fill="#e73635"></path><path d="M540.03 513.72L576.67 513.72L576.67 550.36L540.03 550.36z" stroke="#037b0b"></path><path d="M897.5 531.78 a53.21 53.21 0 1 0 106.42 0 a53.21 53.21 0 1 0 -106.42 0z" stroke="#e73635"></path><path d="M704.24 301.8a9.67 9.67 0 1 0-18.69 4.96z" fill="#d3b714"></path><path d="M952.06 17.71L1007.54 17.71L1007.54 73.19L952.06 73.19z" stroke="#d3b714"></path><path d="M1016.35 114.43a50.71 50.71 0 1 0-94.79-36.09z" fill="#037b0b"></path><path d="M1123.6 489.59L1148.93 489.59L1148.93 514.92L1123.6 514.92z" stroke="#e73635"></path><path d="M465.65 164.33a32.78 32.78 0 1 0 0.58 65.56z" fill="#e73635"></path><path d="M1273.12 311.69L1283.05 311.69L1283.05 315.9L1273.12 315.9z" stroke="#d3b714"></path><path d="M1104.54 167.52 a21.53 21.53 0 1 0 43.06 0 a21.53 21.53 0 1 0 -43.06 0z" stroke="#d3b714"></path><path d="M673.07 58.8 a47.07 47.07 0 1 0 94.14 0 a47.07 47.07 0 1 0 -94.14 0z" stroke="#e73635"></path><path d="M1120.55 4.85 a6.8 6.8 0 1 0 13.6 0 a6.8 6.8 0 1 0 -13.6 0z" stroke="#e73635"></path><path d="M650.18 334.38L701.74 334.38L701.74 385.94L650.18 385.94z" fill="#e73635"></path><path d="M576.31 124.19a6.46 6.46 0 1 0 12.6 2.9z" stroke="#037b0b"></path><path d="M1011.34 129.16L1030.19 129.16L1030.19 148.01L1011.34 148.01z" fill="#e73635"></path><path d="M1009.01 403.62 a3.03 3.03 0 1 0 6.06 0 a3.03 3.03 0 1 0 -6.06 0z" fill="#037b0b"></path><path d="M784.87 285.81 a25.88 25.88 0 1 0 51.76 0 a25.88 25.88 0 1 0 -51.76 0z" stroke="#d3b714"></path><path d="M1437.15 215.3L1450.32 215.3L1450.32 228.47L1437.15 228.47z" stroke="#d3b714"></path><path d="M1325.26 422.45L1334.67 422.45L1334.67 431.86L1325.26 431.86z" stroke="#e73635"></path><path d="M1236.56 334.67 a1.64 1.64 0 1 0 3.28 0 a1.64 1.64 0 1 0 -3.28 0z" fill="#d3b714"></path><path d="M40.69 499.64L91.88 499.64L91.88 504.14L40.69 504.14z" fill="#d3b714"></path><path d="M1044.07 10.44L1076.01 10.44L1076.01 24.81L1044.07 24.81z" stroke="#037b0b"></path><path d="M330.63 424.86L366.15 424.86L366.15 468.69L330.63 468.69z" fill="#e73635"></path><path d="M394.94 386.39a50.95 50.95 0 1 0 8.58-101.54z" fill="#d3b714"></path><path d="M1312.2 118.65L1360.71 118.65L1360.71 167.16L1312.2 167.16z" fill="#d3b714"></path><path d="M986.52 101.76L1007.39 101.76L1007.39 129.6L986.52 129.6z" stroke="#d3b714"></path><path d="M414.36 524.63 a0.87 0.87 0 1 0 1.74 0 a0.87 0.87 0 1 0 -1.74 0z" fill="#037b0b"></path><path d="M993.92 230.45L1003.79 230.45L1003.79 271.51L993.92 271.51z" stroke="#037b0b"></path></g><defs><mask id="SvgjsMask1000"><rect width="1440" height="560" fill="#ffffff"></rect></mask></defs></svg>