<svg xmlns="http://www.w3.org/2000/svg" version="1.1" xmlns:xlink="http://www.w3.org/1999/xlink" xmlns:svgjs="http://svgjs.com/svgjs" width="1440" height="560" preserveAspectRatio="none" viewBox="0 0 1440 560"><g mask="url(&quot;#SvgjsMask1011&quot;)" fill="none"><rect width="1440" height="560" x="0" y="0" fill="#0e2a47"></rect><path d="M1249 265L1248 510" stroke-width="10" stroke="url(#SvgjsLinearGradient1012)" stroke-linecap="round" class="Up"></path><path d="M758 200L757 577" stroke-width="8" stroke="url(#SvgjsLinearGradient1012)" stroke-linecap="round" class="Up"></path><path d="M698 256L697 499" stroke-width="10" stroke="url(#SvgjsLinearGradient1013)" stroke-linecap="round" class="Down"></path><path d="M22 395L21 698" stroke-width="6" stroke="url(#SvgjsLinearGradient1012)" stroke-linecap="round" class="Up"></path><path d="M1001 329L1000 648" stroke-width="8" stroke="url(#SvgjsLinearGradient1012)" stroke-linecap="round" class="Up"></path><path d="M13 114L12 423" stroke-width="6" stroke="url(#SvgjsLinearGradient1012)" stroke-linecap="round" class="Up"></path><path d="M964 36L963 -165" stroke-width="6" stroke="url(#SvgjsLinearGradient1013)" stroke-linecap="round" class="Down"></path><path d="M29 267L28 72" stroke-width="8" stroke="url(#SvgjsLinearGradient1013)" stroke-linecap="round" class="Down"></path><path d="M223 211L222 -34" stroke-width="8" stroke="url(#SvgjsLinearGradient1012)" stroke-linecap="round" class="Up"></path><path d="M705 408L704 -5" stroke-width="8" stroke="url(#SvgjsLinearGradient1013)" stroke-linecap="round" class="Down"></path><path d="M1215 281L1214 430" stroke-width="10" stroke="url(#SvgjsLinearGradient1012)" stroke-linecap="round" class="Up"></path><path d="M410 347L409 678" stroke-width="6" stroke="url(#SvgjsLinearGradient1013)" stroke-linecap="round" class="Down"></path><path d="M667 32L666 257" stroke-width="6" stroke="url(#SvgjsLinearGradient1012)" stroke-linecap="round" class="Up"></path><path d="M1344 270L1343 89" stroke-width="8" stroke="url(#SvgjsLinearGradient1012)" stroke-linecap="round" class="Up"></path><path d="M676 420L675 779" stroke-width="8" stroke="url(#SvgjsLinearGradient1012)" stroke-linecap="round" class="Up"></path><path d="M597 278L596 591" stroke-width="8" stroke="url(#SvgjsLinearGradient1012)" stroke-linecap="round" class="Up"></path><path d="M1007 334L1006 647" stroke-width="10" stroke="url(#SvgjsLinearGradient1013)" stroke-linecap="round" class="Down"></path><path d="M1037 115L1036 291" stroke-width="10" stroke="url(#SvgjsLinearGradient1012)" stroke-linecap="round" class="Up"></path><path d="M112 437L111 743" stroke-width="8" stroke="url(#SvgjsLinearGradient1012)" stroke-linecap="round" class="Up"></path><path d="M671 256L670 551" stroke-width="8" stroke="url(#SvgjsLinearGradient1013)" stroke-linecap="round" class="Down"></path><path d="M1225 129L1224 310" stroke-width="6" stroke="url(#SvgjsLinearGradient1012)" stroke-linecap="round" class="Up"></path><path d="M907 351L906 706" stroke-width="6" stroke="url(#SvgjsLinearGradient1012)" stroke-linecap="round" class="Up"></path><path d="M305 47L304 444" stroke-width="6" stroke="url(#SvgjsLinearGradient1013)" stroke-linecap="round" class="Down"></path><path d="M776 140L775 -256" stroke-width="6" stroke="url(#SvgjsLinearGradient1013)" stroke-linecap="round" class="Down"></path><path d="M783 100L782 -175" stroke-width="6" stroke="url(#SvgjsLinearGradient1012)" stroke-linecap="round" class="Up"></path><path d="M563 410L562 789" stroke-width="10" stroke="url(#SvgjsLinearGradient1013)" stroke-linecap="round" class="Down"></path><path d="M744 550L743 293" stroke-width="6" stroke="url(#SvgjsLinearGradient1013)" stroke-linecap="round" class="Down"></path><path d="M981 248L980 84" stroke-width="8" stroke="url(#SvgjsLinearGradient1012)" stroke-linecap="round" class="Up"></path><path d="M372 463L371 194" stroke-width="8" stroke="url(#SvgjsLinearGradient1013)" stroke-linecap="round" class="Down"></path><path d="M81 422L80 160" stroke-width="6" stroke="url(#SvgjsLinearGradient1013)" stroke-linecap="round" class="Down"></path><path d="M149 212L148 470" stroke-width="10" stroke="url(#SvgjsLinearGradient1013)" stroke-linecap="round" class="Down"></path><path d="M212 439L211 794" stroke-width="10" stroke="url(#SvgjsLinearGradient1013)" stroke-linecap="round" class="Down"></path><path d="M762 430L761 573" stroke-width="10" stroke="url(#SvgjsLinearGradient1012)" stroke-linecap="round" class="Up"></path><path d="M717 138L716 -265" stroke-width="8" stroke="url(#SvgjsLinearGradient1013)" stroke-linecap="round" class="Down"></path><path d="M302 275L301 634" stroke-width="8" stroke="url(#SvgjsLinearGradient1012)" stroke-linecap="round" class="Up"></path><path d="M62 75L61 488" stroke-width="10" stroke="url(#SvgjsLinearGradient1012)" stroke-linecap="round" class="Up"></path></g><defs><mask id="SvgjsMask1011"><rect width="1440" height="560" fill="#ffffff"></rect></mask><linearGradient x1="0%" y1="100%" x2="0%" y2="0%" id="SvgjsLinearGradient1012"><stop stop-color="rgba(28, 83, 142, 0)" offset="0"></stop><stop stop-color="#1c538e" offset="1"></stop></linearGradient><linearGradient x1="0%" y1="0%" x2="0%" y2="100%" id="SvgjsLinearGradient1013"><stop stop-color="rgba(28, 83, 142, 0)" offset="0"></stop><stop stop-color="#1c538e" offset="1"></stop></linearGradient></defs></svg>