<svg xmlns="http://www.w3.org/2000/svg" version="1.1" xmlns:xlink="http://www.w3.org/1999/xlink" xmlns:svgjs="http://svgjs.com/svgjs" width="1440" height="560" preserveAspectRatio="none" viewBox="0 0 1440 560"><g mask="url(&quot;#SvgjsMask1000&quot;)" fill="none"><rect width="1440" height="560" x="0" y="0" fill="#0e2a47"></rect><path d="M0,373.994C72.72,381.946,150.095,368.703,209.64,326.207C268.11,284.478,285.571,209.222,319.554,145.935C356.216,77.658,421.216,17.428,416.993,-59.954C412.708,-138.47,345.38,-195.412,297.518,-257.801C246.539,-324.254,209.365,-415.965,128.157,-436.461C46.987,-456.947,-30.455,-396.494,-105.569,-359.534C-169.156,-328.246,-222.354,-285.765,-274.853,-238.161C-334.521,-184.056,-419.397,-141.634,-433.355,-62.307C-447.324,17.08,-391.828,92.094,-344.436,157.298C-303.323,213.862,-241.297,246.13,-182.109,283.367C-123.532,320.22,-68.796,366.471,0,373.994" fill="#0b2239"></path><path d="M1440 908.383C1503.5529999999999 900.02 1542.834 837.4739999999999 1600.974 810.48 1672.191 777.414 1772.779 796.7470000000001 1818.276 732.7529999999999 1863.037 669.794 1841.281 579.25 1817.659 505.701 1796.155 438.747 1747.296 385.289 1692.516 341.193 1644.32 302.396 1583.7640000000001 289.84 1525.095 270.194 1463.892 249.699 1405.523 218.10899999999998 1341.21 223.55399999999997 1268.84 229.68200000000002 1182.279 241.534 1142.892 302.555 1103.035 364.305 1155.938 445.109 1150.878 518.431 1146.347 584.083 1096.499 645.289 1114.879 708.4780000000001 1133.896 773.857 1191.284 821.094 1249.286 856.7570000000001 1306.549 891.966 1373.353 917.153 1440 908.383" fill="#113255"></path></g><defs><mask id="SvgjsMask1000"><rect width="1440" height="560" fill="#ffffff"></rect></mask></defs></svg>